HIERARCHY
ROOT Hips
{
	OFFSET 0.00 0.00 0.00
	CHANNELS 6 Xposition Yposition Zposition Xrotation Yrotation Zrotation
	JOINT Spine
	{
		OFFSET 0.00000 7.06766 0.00000
		CHANNELS 3 Xrotation Yrotation Zrotation
		JOINT Head
		{
			OFFSET 0.00000 15.03989 0.00000
			CHANNELS 3 Xrotation Yrotation Zrotation
			End Site
			{
				OFFSET 0.00000 4.52755 0.00000
			}
		}
		JOINT LeftShoulder
		{
			OFFSET 0.00000 10.53037 0.00000
			CHANNELS 3 Xrotation Yrotation Zrotation
			JOINT LeftArm
			{
				OFFSET 7.02886 0.00000 0.00000
				CHANNELS 3 Xrotation Yrotation Zrotation
				JOINT LeftForeArm
				{
					OFFSET 10.79770 0.00000 0.00000
					CHANNELS 3 Yrotation Zrotation Xrotation
					JOINT LeftHand
					{
						OFFSET 7.90744 0.00000 0.00000
						CHANNELS 3 Xrotation Yrotation Zrotation
						JOINT LeftHandThumb1
						{
							OFFSET 0.00000 0.00000 0.00000
							CHANNELS 3 Xrotation Zrotation Yrotation
							End Site
							{
								OFFSET 0.00000 0.00000 3.93700
							}
						}
						End Site
						{
							OFFSET 3.93700 0.00000 0.00000
						}
					}
				}
			}
		}
		JOINT RightShoulder
		{
			OFFSET 0.00000 10.53037 0.00000
			CHANNELS 3 Xrotation Yrotation Zrotation
			JOINT RightArm
			{
				OFFSET -7.02886 0.00000 0.00000
				CHANNELS 3 Xrotation Yrotation Zrotation
				JOINT RightForeArm
				{
					OFFSET -10.79770 0.00000 0.00000
					CHANNELS 3 Yrotation Zrotation Xrotation
					JOINT RightHand
					{
						OFFSET -7.90744 0.00000 0.00000
						CHANNELS 3 Xrotation Yrotation Zrotation
						JOINT RightHandThumb1
						{
							OFFSET 0.00000 0.00000 0.00000
							CHANNELS 3 Xrotation Zrotation Yrotation
							End Site
							{
								OFFSET 0.00000 0.00000 3.93700
							}
						}
						End Site
						{
							OFFSET -3.93700 0.00000 0.00000
						}
					}
				}
			}
		}
	}
	JOINT LeftUpLeg
	{
		OFFSET 4.01300 0.00000 0.00000
		CHANNELS 3 Xrotation Yrotation Zrotation
		JOINT LeftLeg
		{
			OFFSET 0.00000 -16.89976 0.00000
			CHANNELS 3 Xrotation Yrotation Zrotation
			JOINT LeftFoot
			{
				OFFSET 0.00000 -17.38918 0.00000
				CHANNELS 3 Xrotation Yrotation Zrotation
				JOINT LeftToeBase
				{
					OFFSET 0.00000 -1.27456 4.75673
					CHANNELS 3 Xrotation Yrotation Zrotation
					End Site
					{
						OFFSET 0.00000 0.00000 2.95275
					}
				}
			}
		}
	}
	JOINT RightUpLeg
	{
		OFFSET -4.01300 0.00000 0.00000
		CHANNELS 3 Xrotation Yrotation Zrotation
		JOINT RightLeg
		{
			OFFSET 0.00000 -16.89976 0.00000
			CHANNELS 3 Xrotation Yrotation Zrotation
			JOINT RightFoot
			{
				OFFSET 0.00000 -17.38918 0.00000
				CHANNELS 3 Xrotation Yrotation Zrotation
				JOINT RightToeBase
				{
					OFFSET 0.00000 -1.27456 4.75673
					CHANNELS 3 Xrotation Yrotation Zrotation
					End Site
					{
						OFFSET 0.00000 0.00000 2.95275
					}
				}
			}
		}
	}
}
MOTION
Frames: 9
Frame Time: 0.008333
 18.6164 13.9702 -24.1298 147.9739 7.6523 -155.5762 -0.6022 25.9699 -25.8217 -29.8756 -9.5249 -5.8429 -4.2846 4.6503 4.1658 93.3847 -49.2559 -38.6902 -61.1756 -0.0000 -20.8061 1.9281 22.3624 -5.0565 33.1476 -0.0000 26.2537 5.3007 0.4690 11.7280 -18.5620 23.5963 73.4303 12.8929 -0.0000 26.5162 -0.3437 -7.1982 -2.7408 32.8623 0.0000 -24.3270 -135.0936 34.7732 20.9283 120.4001 -0.0000 0.0000 -43.6679 19.7353 19.6990 20.9920 -0.0000 0.0000 10.6798 -14.8196 -17.4153 143.1844 -0.0000 -0.0000 47.8668 -16.5999 7.2974 27.6770 0.0000 -0.0000
 18.6187 13.9759 -24.1236 147.9741 7.7100 -155.5926 -0.6931 25.9830 -25.8618 -29.8354 -9.5506 -5.7343 -4.2523 4.5983 4.2407 93.3964 -49.3451 -38.7195 -61.2046 -0.0000 -20.8066 1.9144 22.4252 -5.0074 33.1476 -0.0000 26.2537 5.4217 0.3562 11.8177 -18.0924 24.8126 73.2763 13.2065 -0.0000 25.3528 -0.3622 -7.4471 -2.7922 32.8623 0.0000 -24.3270 -135.0803 34.7137 20.9450 120.3889 0.0000 -0.0000 -43.6497 19.7623 19.6728 20.9562 0.0000 -0.0000 10.6584 -14.7948 -17.3998 143.1889 -0.0000 0.0000 47.8738 -16.5777 7.2743 27.6964 -0.0000 0.0000
 18.6192 13.9815 -24.1169 147.9681 7.7677 -155.6056 -0.8005 25.9861 -25.8901 -29.7735 -9.6129 -5.6216 -4.2176 4.5505 4.3090 93.3921 -49.4284 -38.7804 -61.2378 -0.0000 -20.8138 1.8791 22.4302 -4.9146 33.1476 -0.0000 26.2537 5.5632 0.2679 11.8752 -17.6322 26.0945 73.1294 13.4667 -0.0000 24.2364 -0.4066 -7.5773 -3.0803 32.8623 0.0000 -24.3270 -135.0674 34.6552 20.9595 120.3696 0.0000 -0.0000 -43.6424 19.7558 19.7132 20.9469 -0.0000 -0.0000 10.6302 -14.7605 -17.3937 143.2113 0.0000 0.0000 47.8618 -16.5874 7.2643 27.6662 -0.0000 0.0000
 18.6192 13.9871 -24.1107 147.9593 7.8204 -155.6161 -0.9306 25.9408 -25.9285 -29.7212 -9.6052 -5.4392 -4.2415 4.5432 4.3971 93.4095 -49.4976 -38.8970 -61.2762 -0.0000 -20.7976 1.8636 22.4394 -4.8722 33.1476 -0.0000 26.2537 5.8173 0.2207 11.9653 -17.2037 27.5359 72.8990 13.8058 -0.0000 23.2918 -0.4290 -7.8374 -3.1428 32.8623 0.0000 -24.3270 -135.0620 34.6037 20.9769 120.3550 -0.0000 0.0000 -43.6223 19.7628 19.6995 20.9259 -0.0000 0.0000 10.5985 -14.7305 -17.3919 143.2295 0.0000 -0.0000 47.8681 -16.6030 7.2733 27.6706 -0.0000 0.0000
 18.6180 13.9927 -24.1055 147.9721 7.8812 -155.6310 -1.0438 25.8809 -25.9281 -29.6881 -9.5191 -5.3011 -4.2618 4.5572 4.4259 93.4891 -49.5399 -38.9353 -61.3492 -0.0000 -20.8959 1.8425 22.4771 -4.8096 33.1476 -0.0000 26.2537 5.9514 0.2011 12.0164 -16.8397 28.5522 72.7077 14.0452 -0.0000 22.5263 -0.3998 -7.8310 -2.9314 32.8623 0.0000 -24.3270 -135.0325 34.5563 20.9941 120.3398 -0.0000 0.0000 -43.6017 19.7609 19.7095 20.8937 0.0000 -0.0000 10.5943 -14.6871 -17.3908 143.2470 -0.0000 -0.0000 47.8931 -16.5572 7.2465 27.6269 -0.0000 0.0000
 18.6171 13.9968 -24.1010 147.9768 7.9378 -155.6564 -1.1672 25.8610 -25.8978 -29.6208 -9.5255 -5.2537 -4.1545 4.5627 4.4252 93.5549 -49.6047 -38.8507 -61.4136 -0.0000 -21.0620 1.8264 22.4242 -4.7784 33.1476 -0.0000 26.2537 5.9926 0.1931 12.0088 -16.7045 28.8399 72.7584 14.0709 -0.0000 22.7952 -0.3586 -7.7111 -2.6709 32.8623 0.0000 -24.3270 -135.0183 34.4995 21.0075 120.3391 0.0000 0.0000 -43.5759 19.7660 19.6772 20.8817 0.0000 -0.0000 10.5810 -14.6735 -17.3846 143.2639 0.0000 0.0000 47.9017 -16.6044 7.2356 27.6440 -0.0000 -0.0000
 18.6155 13.9999 -24.0972 147.9870 7.9871 -155.6943 -1.3107 25.8205 -25.8460 -29.5534 -9.5234 -5.1913 -4.0775 4.5739 4.4353 93.6198 -49.6618 -38.8101 -61.4955 -0.0000 -21.2596 1.7932 22.4176 -4.6931 33.1476 -0.0000 26.2537 6.0537 0.1770 12.0075 -16.5005 29.2801 72.7342 14.2122 -0.0000 22.8003 -0.3109 -7.6341 -2.3387 32.8623 0.0000 -24.3270 -134.9965 34.4465 21.0039 120.3297 0.0000 0.0000 -43.5852 19.7953 19.7002 20.8675 0.0000 -0.0000 10.5766 -14.6466 -17.3646 143.2832 0.0000 0.0000 47.9228 -16.6062 7.2115 27.6259 -0.0000 0.0000
 18.6146 14.0025 -24.0937 148.0034 8.0402 -155.7355 -1.4419 25.7923 -25.7954 -29.4822 -9.4999 -5.1367 -4.0165 4.5641 4.4489 93.6013 -49.6744 -38.8869 -61.5774 -0.0000 -21.3590 1.7883 22.4314 -4.6777 33.1476 -0.0000 26.2537 6.0739 0.1691 11.9815 -16.2379 29.7422 72.7236 14.3446 -0.0000 22.9848 -0.2765 -7.5343 -2.1077 32.8623 0.0000 -24.3270 -134.9687 34.3975 21.0067 120.3252 -0.0000 -0.0000 -43.6027 19.8039 19.7292 20.9398 0.0000 -0.0000 10.5823 -14.6278 -17.3368 143.3116 -0.0000 0.0000 47.8939 -16.6136 7.1876 27.7000 0.0000 0.0000
 18.6106 14.0049 -24.0910 148.0203 8.0804 -155.7628 -1.5928 25.7408 -25.7394 -29.3648 -9.4909 -5.0894 -3.9597 4.5628 4.4542 93.6068 -49.7083 -38.9538 -61.6423 -0.0000 -21.4371 1.7975 22.4889 -4.6902 33.1476 -0.0000 26.2537 6.2205 0.1905 11.9305 -16.0642 30.3793 72.6804 14.4226 -0.0000 23.0135 -0.2387 -7.3147 -1.8738 32.8623 0.0000 -24.3270 -134.9368 34.3693 20.9972 120.3184 -0.0000 -0.0000 -43.6025 19.8275 19.7335 20.9125 -0.0000 0.0000 10.5876 -14.6077 -17.3354 143.3350 -0.0000 -0.0000 47.8902 -16.6063 7.1955 27.7226 0.0000 0.0000
